# xmcd CD database file
#
# Track frame offsets:
#	150
#	14482
#	22797
#	36482
#	46662
#	62827
#	74927
#	95917
#	106330
#	122210
#	136522
#	152435
#	167700
#	181267
#
# Disc length: 2558 seconds
#
# Revision: 2
# Processed by: cddbd v1.4PL0 Copyright (c) Steve Scherf et al.
# Submitted via: CDex 1.50
#
DISCID=bb09fc0e
DTITLE=Wylie and the Wild West Show - Get Wild
DYEAR=1994
DGENRE=Country
TTITLE0=Hey Maria
TTITLE1=Ugly Girl Blues
TTITLE2=Devil Woman
TTITLE3=I'm Gonna Be A Cowboy
TTITLE4=Room To Roam
TTITLE5=Honky Tonk Girls
TTITLE6=Too Late
TTITLE7=Honeydew
TTITLE8=Cattle Call
TTITLE9=Shakin' The Blues
TTITLE10=Give It Up
TTITLE11=Jesus Loves Me
TTITLE12=Half Hearted Love
TTITLE13=How Do Ya Feel
EXTD=YEAR: 1994
EXTT0=
EXTT1=
EXTT2=
EXTT3=
EXTT4=
EXTT5=
EXTT6=
EXTT7=
EXTT8=
EXTT9=
EXTT10=
EXTT11=
EXTT12=
EXTT13=
PLAYORDER=
